<svg xmlns="http://www.w3.org/2000/svg" viewBox="0 0 512 512">
  <defs>
    <linearGradient id="gradient" x1="0%" y1="0%" x2="100%" y2="0%">
      <stop offset="0%" style="stop-color:#c084fc;stop-opacity:1" />
      <stop offset="100%" style="stop-color:#818cf8;stop-opacity:1" />
    </linearGradient>
  </defs>
  <path fill="url(#gradient)" d="M32 32C14.3 32 0 46.3 0 64S14.3 96 32 96l448 0c17.7 0 32-14.3 32-32s-14.3-32-32-32L32 32zm0 384c-17.7 0-32 14.3-32 32s14.3 32 32 32l128 0 0-128c0-53 43-96 96-96s96 43 96 96l0 128 128 0c17.7 0 32-14.3 32-32s-14.3-32-32-32l0-272-448 0 0 272z"/>
</svg>
